{
  "accessors": [
    {
      "bufferView": 2,
      "componentType": 5126,
      "count": 57,
      "max": [
        8.462356567382813,
        -6.349077224731445,
        8.184491157531738
      ],
      "min": [
        8.217331886291504,
        -6.655144214630127,
        7.802073001861572
      ],
      "type": "VEC3"
    },
    {
      "bufferView": 2,
      "byteOffset": 684,
      "componentType": 5126,
      "count": 57,
      "max": [
        0.8013095259666443,
        0.7517499923706055,
        0.30178195238113403
      ],
      "min": [
        0.6534550189971924,
        0.5760170817375183,
        0.005257998593151569
      ],
      "type": "VEC3"
    },
    {
      "bufferView": 1,
      "componentType": 5126,
      "count": 57,
      "max": [
        0.6209660172462463,
        0.726061999797821
      ],
      "min": [
        0.4445289969444275,
        0.5474230051040649
      ],
      "type": "VEC2"
    },
    {
      "bufferView": 0,
      "componentType": 5125,
      "count": 192,
      "type": "SCALAR"
    },
    {
      "bufferView": 2,
      "byteOffset": 1368,
      "componentType": 5126,
      "count": 2365,
      "max": [
        -0.8760700225830078,
        -6.21923303604126,
        7.52752685546875
      ],
      "min": [
        -2.6212189197540283,
        -7.5329179763793945,
        6.480999946594238
      ],
      "type": "VEC3"
    },
    {
      "bufferView": 2,
      "byteOffset": 29748,
      "componentType": 5126,
      "count": 2365,
      "max": [
        0.9966682195663452,
        0.9999697804450989,
        0.9993385076522827
      ],
      "min": [
        -0.9992398619651794,
        -0.99989914894104,
        -0.999687910079956
      ],
      "type": "VEC3"
    },
    {
      "bufferView": 1,
      "byteOffset": 456,
      "componentType": 5126,
      "count": 2365,
      "max": [
        0.9383900165557861,
        0.9811859726905823
      ],
      "min": [
        0.036348000168800354,
        0.044718001037836075
      ],
      "type": "VEC2"
    },
    {
      "bufferView": 0,
      "byteOffset": 768,
      "componentType": 5125,
      "count": 13008,
      "type": "SCALAR"
    },
    {
      "bufferView": 2,
      "byteOffset": 58128,
      "componentType": 5126,
      "count": 1321,
      "max": [
        -2.606851100921631,
        -4.696033954620361,
        9.098921775817871
      ],
      "min": [
        -4.4239301681518555,
        -6.802087783813477,
        6.4162139892578125
      ],
      "type": "VEC3"
    },
    {
      "bufferView": 2,
      "byteOffset": 73980,
      "componentType": 5126,
      "count": 1321,
      "max": [
        0.9962697625160217,
        0.9980986714363098,
        0.9852506518363953
      ],
      "min": [
        -0.9984042644500732,
        -0.9995177388191223,
        -0.9993602633476257
      ],
      "type": "VEC3"
    },
    {
      "bufferView": 1,
      "byteOffset": 19376,
      "componentType": 5126,
      "count": 1321,
      "max": [
        0.9496510028839111,
        0.9730820059776306
      ],
      "min": [
        0.06814700365066528,
        0.07290499657392502
      ],
      "type": "VEC2"
    },
    {
      "bufferView": 0,
      "byteOffset": 52800,
      "componentType": 5125,
      "count": 7476,
      "type": "SCALAR"
    },
    {
      "bufferView": 2,
      "byteOffset": 89832,
      "componentType": 5126,
      "count": 1492,
      "max": [
        8.462356567382813,
        -2.979617118835449,
        9.111074447631836
      ],
      "min": [
        -4.199175834655762,
        -13.911169052124023,
        1.6492969989776611
      ],
      "type": "VEC3"
    },
    {
      "bufferView": 2,
      "byteOffset": 107736,
      "componentType": 5126,
      "count": 1492,
      "max": [
        0.9970415234565735,
        0.9974343776702881,
        0.9984942674636841
      ],
      "min": [
        -0.9999480247497559,
        -0.9907522201538086,
        -0.9977802634239197
      ],
      "type": "VEC3"
    },
    {
      "bufferView": 1,
      "byteOffset": 29944,
      "componentType": 5126,
      "count": 1492,
      "max": [
        0.9379730224609375,
        0.9767230153083801
      ],
      "min": [
        0.03214000165462494,
        0.034421999007463455
      ],
      "type": "VEC2"
    },
    {
      "bufferView": 0,
      "byteOffset": 82704,
      "componentType": 5125,
      "count": 7860,
      "type": "SCALAR"
    },
    {
      "bufferView": 2,
      "byteOffset": 125640,
      "componentType": 5126,
      "count": 826,
      "max": [
        -2.900636911392212,
        -4.630958080291748,
        7.428140163421631
      ],
      "min": [
        -5.0382161140441895,
        -9.14617919921875,
        3.7679901123046875
      ],
      "type": "VEC3"
    },
    {
      "bufferView": 2,
      "byteOffset": 135552,
      "componentType": 5126,
      "count": 826,
      "max": [
        0.9987557530403137,
        0.7800959944725037,
        0.8802652955055237
      ],
      "min": [
        -0.9987554550170898,
        -0.780103325843811,
        -0.8802627325057983
      ],
      "type": "VEC3"
    },
    {
      "bufferView": 1,
      "byteOffset": 41880,
      "componentType": 5126,
      "count": 826,
      "max": [
        0.9463269710540771,
        0.9662860035896301
      ],
      "min": [
        0.02996099926531315,
        0.041627999395132065
      ],
      "type": "VEC2"
    },
    {
      "bufferView": 0,
      "byteOffset": 114144,
      "componentType": 5125,
      "count": 4716,
      "type": "SCALAR"
    },
    {
      "bufferView": 2,
      "byteOffset": 145464,
      "componentType": 5126,
      "count": 2089,
      "max": [
        -3.2081499099731445,
        -6.476065158843994,
        9.233322143554688
      ],
      "min": [
        -4.773752212524414,
        -7.7138590812683105,
        5.71254301071167
      ],
      "type": "VEC3"
    },
    {
      "bufferView": 2,
      "byteOffset": 170532,
      "componentType": 5126,
      "count": 2089,
      "max": [
        0.9965199828147888,
        0.9998706579208374,
        0.9995744824409485
      ],
      "min": [
        -0.9999966621398926,
        -0.9970629811286926,
        -0.9586506485939026
      ],
      "type": "VEC3"
    },
    {
      "bufferView": 1,
      "byteOffset": 48488,
      "componentType": 5126,
      "count": 2089,
      "max": [
        0.9368020296096802,
        0.9575740098953247
      ],
      "min": [
        0.05094200000166893,
        0.07743500173091888
      ],
      "type": "VEC2"
    },
    {
      "bufferView": 0,
      "byteOffset": 133008,
      "componentType": 5125,
      "count": 11904,
      "type": "SCALAR"
    },
    {
      "bufferView": 2,
      "byteOffset": 195600,
      "componentType": 5126,
      "count": 4,
      "max": [
        5.671675205230713,
        0.17328499257564545,
        3.969468116760254
      ],
      "min": [
        -8.847960472106934,
        -14.346349716186523,
        3.969468116760254
      ],
      "type": "VEC3"
    },
    {
      "bufferView": 2,
      "byteOffset": 195648,
      "componentType": 5126,
      "count": 4,
      "max": [
        0.0,
        -0.0,
        1.0
      ],
      "min": [
        0.0,
        -0.0,
        1.0
      ],
      "type": "VEC3"
    },
    {
      "bufferView": 1,
      "byteOffset": 65200,
      "componentType": 5126,
      "count": 4,
      "max": [
        1.0,
        1.0
      ],
      "min": [
        0.0,
        0.0
      ],
      "type": "VEC2"
    },
    {
      "bufferView": 0,
      "byteOffset": 180624,
      "componentType": 5125,
      "count": 6,
      "type": "SCALAR"
    },
    {
      "bufferView": 2,
      "byteOffset": 195696,
      "componentType": 5126,
      "count": 1239,
      "max": [
        8.568180084228516,
        -5.3511271476745605,
        8.04258918762207
      ],
      "min": [
        -0.7477759718894958,
        -7.817656993865967,
        6.091340065002441
      ],
      "type": "VEC3"
    },
    {
      "bufferView": 2,
      "byteOffset": 210564,
      "componentType": 5126,
      "count": 1239,
      "max": [
        0.9426994919776917,
        0.9995312094688416,
        0.9999488592147827
      ],
      "min": [
        -0.9992532134056091,
        -0.9991381168365479,
        -0.9995831251144409
      ],
      "type": "VEC3"
    },
    {
      "bufferView": 1,
      "byteOffset": 65232,
      "componentType": 5126,
      "count": 1239,
      "max": [
        0.9100379943847656,
        0.9604340195655823
      ],
      "min": [
        0.04362700134515762,
        0.03687199950218201
      ],
      "type": "VEC2"
    },
    {
      "bufferView": 0,
      "byteOffset": 180648,
      "componentType": 5125,
      "count": 6528,
      "type": "SCALAR"
    },
    {
      "bufferView": 2,
      "byteOffset": 225432,
      "componentType": 5126,
      "count": 1838,
      "max": [
        1.8559880256652832,
        -2.673089027404785,
        10.89676570892334
      ],
      "min": [
        -2.603722095489502,
        -10.920056343078613,
        4.837576866149902
      ],
      "type": "VEC3"
    },
    {
      "bufferView": 2,
      "byteOffset": 247488,
      "componentType": 5126,
      "count": 1838,
      "max": [
        0.9966039061546326,
        0.9993047714233398,
        0.998079240322113
      ],
      "min": [
        -0.9983963370323181,
        -0.9956032633781433,
        -0.999740481376648
      ],
      "type": "VEC3"
    },
    {
      "bufferView": 0,
      "byteOffset": 206760,
      "componentType": 5125,
      "count": 11040,
      "type": "SCALAR"
    },
    {
      "bufferView": 2,
      "byteOffset": 269544,
      "componentType": 5126,
      "count": 1066,
      "max": [
        8.671488761901855,
        -5.959902763366699,
        7.806506156921387
      ],
      "min": [
        -0.6809210181236267,
        -9.797335624694824,
        5.632922172546387
      ],
      "type": "VEC3"
    },
    {
      "bufferView": 2,
      "byteOffset": 282336,
      "componentType": 5126,
      "count": 1066,
      "max": [
        0.9899421334266663,
        0.9999126195907593,
        0.999344527721405
      ],
      "min": [
        -0.8771771192550659,
        -0.9999749064445496,
        -0.9996622204780579
      ],
      "type": "VEC3"
    },
    {
      "bufferView": 1,
      "byteOffset": 75144,
      "componentType": 5126,
      "count": 1066,
      "max": [
        0.9818940162658691,
        0.971792995929718
      ],
      "min": [
        0.030052000656723976,
        0.03959000110626221
      ],
      "type": "VEC2"
    },
    {
      "bufferView": 0,
      "byteOffset": 250920,
      "componentType": 5125,
      "count": 5274,
      "type": "SCALAR"
    }
  ],
  "asset": {
    "extras": {
      "author": "University of Dundee School of Medicine (https://sketchfab.com/tilt)",
      "license": "CC-BY-NC-SA-4.0 (http://creativecommons.org/licenses/by-nc-sa/4.0/)",
      "source": "https://sketchfab.com/3d-models/anatomy-of-the-inner-ear-f80bda64666c4b8aaac8f63b7b82a0a0",
      "title": "Anatomy of the Inner Ear"
    },
    "generator": "Sketchfab-12.66.0",
    "version": "2.0"
  },
  "bufferViews": [
    {
      "buffer": 0,
      "byteLength": 272016,
      "name": "floatBufferViews",
      "target": 34963
    },
    {
      "buffer": 0,
      "byteLength": 83672,
      "byteOffset": 272016,
      "byteStride": 8,
      "name": "floatBufferViews",
      "target": 34962
    },
    {
      "buffer": 0,
      "byteLength": 295128,
      "byteOffset": 355688,
      "byteStride": 12,
      "name": "floatBufferViews",
      "target": 34962
    }
  ],
  "buffers": [
    {
      "byteLength": 650816,
      "uri": "scene.bin"
    }
  ],
  "images": [
    {
      "uri": "textures/initialShadingGroup_baseColor.jpeg"
    },
    {
      "uri": "textures/lambert11SG_baseColor.jpeg"
    },
    {
      "uri": "textures/lambert12SG_baseColor.jpeg"
    },
    {
      "uri": "textures/lambert13SG_baseColor.png"
    },
    {
      "uri": "textures/lambert5SG_baseColor.jpeg"
    },
    {
      "uri": "textures/lambert6SG_baseColor.jpeg"
    },
    {
      "uri": "textures/lambert7SG_baseColor.png"
    },
    {
      "uri": "textures/lambert8SG_baseColor.png"
    },
    {
      "uri": "textures/lambert9SG_baseColor.png"
    }
  ],
  "materials": [
    {
      "doubleSided": true,
      "name": "initialShadingGroup",
      "pbrMetallicRoughness": {
        "baseColorTexture": {
          "index": 0
        },
        "metallicFactor": 0.0,
        "roughnessFactor": 0.6
      }
    },
    {
      "doubleSided": true,
      "name": "lambert10SG",
      "pbrMetallicRoughness": {
        "baseColorFactor": [
          0.456411023180405,
          0.7758222183174236,
          0.25015828472995294,
          1.0
        ],
        "metallicFactor": 0.0,
        "roughnessFactor": 0.6
      }
    },
    {
      "doubleSided": true,
      "name": "lambert11SG",
      "pbrMetallicRoughness": {
        "baseColorTexture": {
          "index": 1
        },
        "metallicFactor": 0.0,
        "roughnessFactor": 0.6
      }
    },
    {
      "doubleSided": true,
      "name": "lambert12SG",
      "pbrMetallicRoughness": {
        "baseColorTexture": {
          "index": 2
        },
        "metallicFactor": 0.0,
        "roughnessFactor": 0.6
      }
    },
    {
      "alphaMode": "BLEND",
      "doubleSided": true,
      "name": "lambert13SG",
      "pbrMetallicRoughness": {
        "baseColorTexture": {
          "index": 3
        },
        "metallicFactor": 0.0,
        "roughnessFactor": 0.6
      }
    },
    {
      "doubleSided": true,
      "name": "lambert5SG",
      "pbrMetallicRoughness": {
        "baseColorTexture": {
          "index": 4
        },
        "metallicFactor": 0.0,
        "roughnessFactor": 0.6
      }
    },
    {
      "doubleSided": true,
      "name": "lambert6SG",
      "pbrMetallicRoughness": {
        "baseColorTexture": {
          "index": 5
        },
        "metallicFactor": 0.0,
        "roughnessFactor": 0.6
      }
    },
    {
      "alphaMode": "BLEND",
      "doubleSided": true,
      "name": "lambert7SG",
      "pbrMetallicRoughness": {
        "baseColorTexture": {
          "index": 6
        },
        "metallicFactor": 0.0,
        "roughnessFactor": 0.6
      }
    },
    {
      "alphaMode": "BLEND",
      "doubleSided": true,
      "name": "lambert8SG",
      "pbrMetallicRoughness": {
        "baseColorFactor": [
          0.5,
          0.5,
          0.5,
          1.0
        ],
        "baseColorTexture": {
          "index": 7
        },
        "metallicFactor": 0.0,
        "roughnessFactor": 0.6
      }
    },
    {
      "alphaMode": "BLEND",
      "doubleSided": true,
      "name": "lambert9SG",
      "pbrMetallicRoughness": {
        "baseColorTexture": {
          "index": 8
        },
        "metallicFactor": 0.0,
        "roughnessFactor": 0.6
      }
    }
  ],
  "meshes": [
    {
      "name": "Object_0",
      "primitives": [
        {
          "attributes": {
            "NORMAL": 1,
            "POSITION": 0,
            "TEXCOORD_0": 2
          },
          "indices": 3,
          "material": 0,
          "mode": 4
        }
      ]
    },
    {
      "name": "Object_1",
      "primitives": [
        {
          "attributes": {
            "NORMAL": 5,
            "POSITION": 4,
            "TEXCOORD_0": 6
          },
          "indices": 7,
          "material": 2,
          "mode": 4
        }
      ]
    },
    {
      "name": "Object_2",
      "primitives": [
        {
          "attributes": {
            "NORMAL": 9,
            "POSITION": 8,
            "TEXCOORD_0": 10
          },
          "indices": 11,
          "material": 3,
          "mode": 4
        }
      ]
    },
    {
      "name": "Object_3",
      "primitives": [
        {
          "attributes": {
            "NORMAL": 13,
            "POSITION": 12,
            "TEXCOORD_0": 14
          },
          "indices": 15,
          "material": 4,
          "mode": 4
        }
      ]
    },
    {
      "name": "Object_4",
      "primitives": [
        {
          "attributes": {
            "NORMAL": 17,
            "POSITION": 16,
            "TEXCOORD_0": 18
          },
          "indices": 19,
          "material": 5,
          "mode": 4
        }
      ]
    },
    {
      "name": "Object_5",
      "primitives": [
        {
          "attributes": {
            "NORMAL": 21,
            "POSITION": 20,
            "TEXCOORD_0": 22
          },
          "indices": 23,
          "material": 6,
          "mode": 4
        }
      ]
    },
    {
      "name": "Object_6",
      "primitives": [
        {
          "attributes": {
            "NORMAL": 25,
            "POSITION": 24,
            "TEXCOORD_0": 26
          },
          "indices": 27,
          "material": 8,
          "mode": 4
        }
      ]
    },
    {
      "name": "Object_7",
      "primitives": [
        {
          "attributes": {
            "NORMAL": 29,
            "POSITION": 28,
            "TEXCOORD_0": 30
          },
          "indices": 31,
          "material": 9,
          "mode": 4
        }
      ]
    },
    {
      "name": "Object_8",
      "primitives": [
        {
          "attributes": {
            "NORMAL": 33,
            "POSITION": 32
          },
          "indices": 34,
          "material": 1,
          "mode": 4
        }
      ]
    },
    {
      "name": "Object_9",
      "primitives": [
        {
          "attributes": {
            "NORMAL": 36,
            "POSITION": 35,
            "TEXCOORD_0": 37
          },
          "indices": 38,
          "material": 7,
          "mode": 4
        }
      ]
    }
  ],
  "nodes": [
    {
      "children": [
        1
      ],
      "matrix": [
        1.0,
        0.0,
        0.0,
        0.0,
        0.0,
        2.220446049250313e-16,
        -1.0,
        0.0,
        0.0,
        1.0,
        2.220446049250313e-16,
        0.0,
        0.0,
        0.0,
        0.0,
        1.0
      ],
      "name": "Sketchfab_model"
    },
    {
      "children": [
        2,
        3,
        4,
        5,
        6,
        7,
        8,
        9,
        10,
        11
      ],
      "name": "Anatomy_of_the_Inner_Ear_Sketchfab_upload_01.obj.cleaner.gles"
    },
    {
      "mesh": 0,
      "name": "Object_2"
    },
    {
      "mesh": 1,
      "name": "Object_3"
    },
    {
      "mesh": 2,
      "name": "Object_4"
    },
    {
      "mesh": 3,
      "name": "Object_5"
    },
    {
      "mesh": 4,
      "name": "Object_6"
    },
    {
      "mesh": 5,
      "name": "Object_7"
    },
    {
      "mesh": 6,
      "name": "Object_8"
    },
    {
      "mesh": 7,
      "name": "Object_9"
    },
    {
      "mesh": 8,
      "name": "Object_10"
    },
    {
      "mesh": 9,
      "name": "Object_11"
    }
  ],
  "samplers": [
    {
      "magFilter": 9729,
      "minFilter": 9987,
      "wrapS": 10497,
      "wrapT": 10497
    }
  ],
  "scene": 0,
  "scenes": [
    {
      "name": "Sketchfab_Scene",
      "nodes": [
        0
      ]
    }
  ],
  "textures": [
    {
      "sampler": 0,
      "source": 0
    },
    {
      "sampler": 0,
      "source": 1
    },
    {
      "sampler": 0,
      "source": 2
    },
    {
      "sampler": 0,
      "source": 3
    },
    {
      "sampler": 0,
      "source": 4
    },
    {
      "sampler": 0,
      "source": 5
    },
    {
      "sampler": 0,
      "source": 6
    },
    {
      "sampler": 0,
      "source": 7
    },
    {
      "sampler": 0,
      "source": 8
    }
  ]
}
